# xmcd CD database file
#
# Track frame offsets:
#	150
#	50162
#	99795
#	152772
#	205962
#	251785
#
# Disc length: 3882 seconds
#
# Revision: 0
# Processed by: cddbd v1.5.1PL0 Copyright (c) Steve Scherf et al.
# Submitted via: CDex 1.51
#
DISCID=4d0f2806
DTITLE=Thelonious Monk - Blue Monk
DYEAR=1963
DGENRE=Jazz
TTITLE0=Hackensack
TTITLE1=Light Blue
TTITLE2=Evidence
TTITLE3=Blue Monk
TTITLE4=Jackie-Ing
TTITLE5=Ruby My Dear
EXTD=YEAR: 1963
EXTT0=
EXTT1=
EXTT2=
EXTT3=
EXTT4=
EXTT5=
PLAYORDER=
